<?xml version="1.0" encoding="UTF-8" standalone="no"?>
<!-- Created with Inkscape (http://www.inkscape.org/) -->

<svg
   xmlns:dc="http://purl.org/dc/elements/1.1/"
   xmlns:cc="http://creativecommons.org/ns#"
   xmlns:rdf="http://www.w3.org/1999/02/22-rdf-syntax-ns#"
   xmlns:svg="http://www.w3.org/2000/svg"
   xmlns="http://www.w3.org/2000/svg"
   xmlns:sodipodi="http://sodipodi.sourceforge.net/DTD/sodipodi-0.dtd"
   xmlns:inkscape="http://www.inkscape.org/namespaces/inkscape"
   width="100"
   height="100"
   viewBox="0 0 99.999997 99.999997"
   id="svg4462"
   version="1.1"
   inkscape:version="0.91 r13725">
  <defs
     id="defs4464" />
  <sodipodi:namedview
     id="base"
     pagecolor="#ffffff"
     bordercolor="#666666"
     borderopacity="1.0"
     inkscape:pageopacity="0.0"
     inkscape:pageshadow="2"
     inkscape:zoom="3.959798"
     inkscape:cx="90.979615"
     inkscape:cy="49.340552"
     inkscape:document-units="px"
     inkscape:current-layer="layer1"
     showgrid="false"
     units="px"
     inkscape:window-width="1363"
     inkscape:window-height="698"
     inkscape:window-x="806"
     inkscape:window-y="140"
     inkscape:window-maximized="0" />
  <metadata
     id="metadata4467">
    <rdf:RDF>
      <cc:Work
         rdf:about="">
        <dc:format>image/svg+xml</dc:format>
        <dc:type
           rdf:resource="http://purl.org/dc/dcmitype/StillImage" />
        <dc:title></dc:title>
      </cc:Work>
    </rdf:RDF>
  </metadata>
  <g
     inkscape:label="Layer 1"
     inkscape:groupmode="layer"
     id="layer1"
     transform="translate(0,-952.36223)">
    <path
       sodipodi:nodetypes="ssssssssss"
       id="path4263"
       d="m 50.651415,971.54232 c 5.120543,0 9.387651,-4.26712 9.387651,-9.38765 0,-5.12055 -4.267108,-9.38767 -9.387651,-9.38767 -5.120543,0 -9.387657,4.26712 -9.387657,9.38767 0,5.12053 4.267114,9.38765 9.387657,9.38765 z m 0,-15.40224 c 3.120865,0.0343 6.064404,2.26875 6.103987,6.01459 0.04105,3.88183 -3.116929,5.87516 -6.103987,5.83577 -3.388969,-0.0447 -6.059818,-2.13383 -6.103986,-5.83577 -0.04466,-3.74692 2.669896,-6.05225 6.103986,-6.01459 z"
       inkscape:connector-curvature="0"
       style="fill:#d11e9f;fill-opacity:1" />
    <path
       sodipodi:nodetypes="ssscscssscccccssccccsssscccscssscsc"
       id="path4265"
       d="m 79.66781,964.71492 c 0,-3.41369 -2.986978,-6.40066 -6.400679,-6.40066 -3.413693,0 -6.40067,2.98697 -6.40067,6.40066 0,5.54727 -2.560271,10.24109 -7.2541,13.22807 -1.28013,-2.98698 -4.693823,-5.12053 -8.53423,-5.12053 -3.840408,0 -7.2541,2.13355 -8.960951,5.12053 -4.693829,-2.98698 -7.2541,-7.6808 -7.2541,-13.22807 0,-3.41369 -2.986978,-6.40066 -6.40067,-6.40066 -3.413702,0 -6.400679,2.98697 -6.400679,6.40066 0,11.94794 7.2541,23.04244 17.921892,27.30958 l 0,0 0,40.5376 3.551885,0 0,-48.50695 c 0.426716,-3.4137 2.848794,-7.68081 7.542623,-7.68081 4.693827,0 7.06558,4.26749 7.115906,7.68081 l 0.715238,48.50695 2.836642,0 0,-40.5376 0,0 C 72.41371,987.75736 79.66781,976.66286 79.66781,964.71492 Z M 25.235686,963.9997 c 0,-1.28014 2.01568,-2.58058 3.295815,-2.58058 1.280137,0 3.206409,1.30044 3.206409,2.58058 0,7.2541 3.619144,14.30679 9.593108,18.14721 -0.49807,0.97793 -0.41494,3.03439 -0.41494,3.03439 l -0.09483,3.38568 C 31.193849,985.97822 25.235676,974.35049 25.235676,963.9997 Z m 36.083516,18.21041 c 5.973964,-3.41369 9.099145,-10.95631 9.099145,-18.21041 0,-1.28014 1.568648,-2.66999 2.848784,-2.66999 1.637759,0 3.625562,1.39015 3.653429,2.66999 0.268215,12.31768 -7.493827,20.90071 -15.174643,24.3144 l 0,-3.54371 c 0,-0.85344 0,-1.70686 -0.426715,-2.56028 z"
       inkscape:connector-curvature="0"
       style="fill:#d11e9f;fill-opacity:1" />
    <path
       sodipodi:nodetypes="csssccssscccsccsssccscssscccssssss"
       id="path4269"
       d="m 27.109728,1008.0642 c 3.739995,-0.8312 6.648879,-4.591 6.648879,-8.74653 0,-4.98671 -4.155545,-9.14221 -9.142222,-9.14221 -4.986666,0 -9.142211,4.1555 -9.142211,9.14221 0,4.15553 2.493333,7.48003 6.233318,8.72663 -2.493323,0.4156 -4.571106,2.0778 -6.233318,4.1556 -2.077782,-2.4934 -3.324445,-5.4022 -3.324445,-9.1422 0,-3.32448 -2.4933417,-5.81779 -5.8177758,-5.81779 -3.3244541,0 -5.81777715,2.49331 -5.81777715,5.81779 0,9.5578 5.40221665,18.2844 13.29776595,22.4399 l 0,7.0645 2.806027,0 0,-15.3756 c 0,-0.8311 0.130603,-1.2466 0.546154,-2.0777 l 0.56593,-1.5237 c 1.246671,-2.0778 3.977439,-2.802 6.055231,-2.802 l 1.662212,0 c 3.736029,0 7.143564,2.6675 7.143564,6.4034 l 0,15.3756 2.414218,0 0,-15.3756 c 0,-4.571 -3.324444,-8.2913 -7.89555,-9.1223 z m -23.8528485,-5.422 c 9.713e-4,-0.5917 0.1565574,-2.79152 3.0552875,-2.79421 1.8981747,0 3.3600213,1.46241 3.3600213,2.75061 0,4.9866 1.2308697,10.0169 4.9708647,13.3413 l 0,0.8311 0,6.263 C 8.4451627,1019.9648 3.2351107,1012.841 3.2568795,1002.6422 Z m 15.0668495,-3.32453 c 0.05878,-3.25652 3.383833,-6.27321 6.292656,-6.29274 3.257165,-0.0221 6.400169,2.97034 6.379742,6.29274 -0.02173,3.54003 -2.578707,6.21463 -6.379742,6.16203 -3.518311,-0.049 -6.354207,-2.7559 -6.292656,-6.16203 z"
       inkscape:connector-curvature="0"
       style="fill:#d11e9f;fill-opacity:1" />
    <path
       sodipodi:nodetypes="csssccssscccsccsssccscssscccssssss"
       id="path4269-0"
       d="m 73.054679,1008.2051 c -3.717685,-0.8261 -6.609215,-4.5634 -6.609215,-8.69427 0,-4.95688 4.130761,-9.08764 9.087679,-9.08764 4.956916,0 9.087678,4.13076 9.087678,9.08764 0,4.13087 -2.478463,7.43547 -6.196138,8.67467 2.478444,0.4131 4.543839,2.0653 6.196138,4.1308 2.065377,-2.4785 3.304608,-5.37 3.304608,-9.0877 0,-3.30459 2.478464,-5.78311 5.783071,-5.78311 3.304618,0 5.783071,2.47852 5.783071,5.78311 0,9.5008 -5.369994,18.1754 -13.218441,22.3061 l 0,7.0223 -2.789284,0 0,-15.2838 c 0,-0.8262 -0.129823,-1.2393 -0.54289,-2.0654 l -0.562565,-1.5145 c -1.239232,-2.0655 -3.953708,-2.7854 -6.019104,-2.7854 l -1.652299,0 c -3.71373,0 -7.100937,2.6515 -7.100937,6.3653 l 0,15.2838 -2.399819,0 0,-15.2838 c 0,-4.5438 3.304608,-8.2418 7.848447,-9.0681 z m 23.710541,-5.3896 c -9.62e-4,-0.5882 -0.155626,-2.7747 -3.037054,-2.7775 -1.886859,0 -3.339975,1.4538 -3.339975,2.7343 0,4.9568 -1.22353,9.9571 -4.941215,13.2616 l 0,0.8262 0,6.2255 c 6.160921,-3.0509 11.339882,-10.1321 11.318244,-20.2701 z m -14.976951,-3.30467 c -0.05848,-3.23699 -3.363656,-6.23576 -6.255126,-6.25509 -3.237729,-0.0221 -6.361989,2.95251 -6.341682,6.25509 0.02163,3.51907 2.563326,6.17757 6.341682,6.12547 3.497323,-0.048 6.316307,-2.7396 6.255126,-6.12547 z"
       inkscape:connector-curvature="0"
       style="fill:#d11e9f;fill-opacity:1" />
  </g>
</svg>
