<?xml version="1.0" encoding="UTF-8" standalone="no"?>
<!-- Created with Inkscape (http://www.inkscape.org/) -->

<svg
   xmlns:dc="http://purl.org/dc/elements/1.1/"
   xmlns:cc="http://creativecommons.org/ns#"
   xmlns:rdf="http://www.w3.org/1999/02/22-rdf-syntax-ns#"
   xmlns:svg="http://www.w3.org/2000/svg"
   xmlns="http://www.w3.org/2000/svg"
   xmlns:sodipodi="http://sodipodi.sourceforge.net/DTD/sodipodi-0.dtd"
   xmlns:inkscape="http://www.inkscape.org/namespaces/inkscape"
   width="100"
   height="100"
   viewBox="0 0 99.999997 99.999997"
   id="svg4462"
   version="1.1"
   inkscape:version="0.91 r13725">
  <defs
     id="defs4464" />
  <sodipodi:namedview
     id="base"
     pagecolor="#ffffff"
     bordercolor="#666666"
     borderopacity="1.0"
     inkscape:pageopacity="0.0"
     inkscape:pageshadow="2"
     inkscape:zoom="3.959798"
     inkscape:cx="90.979615"
     inkscape:cy="55.315924"
     inkscape:document-units="px"
     inkscape:current-layer="layer1"
     showgrid="false"
     units="px"
     inkscape:window-width="1363"
     inkscape:window-height="698"
     inkscape:window-x="806"
     inkscape:window-y="140"
     inkscape:window-maximized="0" />
  <metadata
     id="metadata4467">
    <rdf:RDF>
      <cc:Work
         rdf:about="">
        <dc:format>image/svg+xml</dc:format>
        <dc:type
           rdf:resource="http://purl.org/dc/dcmitype/StillImage" />
        <dc:title></dc:title>
      </cc:Work>
    </rdf:RDF>
  </metadata>
  <g
     inkscape:label="Layer 1"
     inkscape:groupmode="layer"
     id="layer1"
     transform="translate(0,-952.36223)">
    <path
       inkscape:connector-curvature="0"
       d="m 53.472195,1026.1971 0,3.5712 c 0.223197,0.1116 0.334795,0.1116 0.55799,0.2232 1.227568,-0.6697 2.78994,-0.4464 3.90591,0.6695 1.004382,1.0044 1.227578,2.4553 0.669589,3.6829 0.669587,1.3392 1.004372,2.7899 1.004372,4.3522 0,5.2451 -4.240705,9.4858 -9.485781,9.4858 -5.245085,0 -9.48579,-4.2407 -9.48579,-9.4858 0,-1.5623 0.334795,-3.013 1.004373,-4.3522 -0.223187,-0.4464 -0.223187,-0.7813 -0.223187,-1.2276 0,-0.8928 0.334784,-1.7857 1.004373,-2.3437 0.669588,-0.6695 1.450764,-1.0043 2.343548,-1.0043 0.557989,0 1.004381,0.1116 1.562362,0.3348 0.223196,-0.1116 0.334793,-0.1116 0.55799,-0.2232 l 0,-3.4595 c -5.468273,1.4508 -9.48579,6.4727 -9.48579,12.3873 0,7.0306 5.803076,12.8337 12.83372,12.8337 7.030634,0 12.833709,-5.8031 12.833709,-12.8337 -0.111597,-6.1379 -4.129106,-11.1597 -9.597388,-12.6106 z"
       id="path4166"
       style="fill:#d11e9f;fill-opacity:1" />
    <path
       inkscape:connector-curvature="0"
       d="m 86.951446,991.24304 c -2.566744,0 -4.910292,0.78119 -6.919047,2.00877 l 2.566745,2.34357 c 0.223195,-0.11161 0.334794,-0.22321 0.557989,-0.22321 0.446392,-1.3392 1.562362,-2.34357 3.013127,-2.34357 1.450773,0 2.678342,0.78115 3.236331,1.89713 4.017508,1.11599 7.030643,4.79875 7.030643,9.15097 0,5.2451 -4.240703,9.4858 -9.485788,9.4858 -4.017508,0 -7.477036,-2.5666 -8.816202,-6.1379 -1.227569,-0.4464 -2.231951,-1.5624 -2.231951,-3.013 0,-0.8928 0.223196,-1.7857 0.892784,-2.4552 0.334794,-0.3348 0.781177,-0.6696 1.227569,-0.8927 0.111598,-0.2233 0.111598,-0.3349 0.223195,-0.5581 l -2.566744,-2.34353 c -0.892774,1.78565 -1.450763,3.68263 -1.450763,5.80303 0,7.0308 5.803065,12.8337 12.833709,12.8337 7.030644,0 12.833709,-5.8029 12.833709,-12.8337 0,-7.03062 -5.803065,-12.72206 -12.945306,-12.72206 z"
       id="path4168"
       style="fill:#d11e9f;fill-opacity:1" />
    <path
       inkscape:connector-curvature="0"
       d="m 22.0017,1000.2825 c 0,0.1116 0.111598,0.2231 0.111598,0.3347 0.55799,0.2232 1.115979,0.4465 1.450774,0.8928 0.55798,0.6696 0.892775,1.5624 0.892775,2.4551 -0.1116,1.3392 -1.004373,2.5667 -2.120353,3.0131 -1.227569,3.7944 -4.798695,6.5843 -9.039399,6.5843 -5.2450845,0 -9.4857886,-4.2407 -9.4857886,-9.4858 0,-4.35222 2.901538,-8.03498 6.9190456,-9.15097 0.446391,-1.45069 1.785557,-2.45511 3.347929,-2.34351 0.892775,0 1.785559,0.44638 2.343548,1.11593 0.446393,0.55804 0.781176,1.11597 0.781176,1.78562 0,0 0.111599,0 0.111599,0.11161 l 2.566744,-2.34357 c -1.897157,-1.22758 -4.240704,-1.89717 -6.69585,-1.89717 -7.0306436,0 -12.8337094,5.80306 -12.8337094,12.83366 0,7.0306 5.8030658,12.7221 12.9453064,12.7221 7.142242,0 12.83371,-5.8031 12.83371,-12.8337 0,-2.232 -0.557979,-4.24062 -1.562361,-6.13785 l -2.566744,2.34365 z"
       id="path4170"
       style="fill:#d11e9f;fill-opacity:1" />
    <path
       inkscape:connector-curvature="0"
       d="m 56.708528,1031.7333 c -0.669589,-0.6697 -1.673971,-0.6697 -2.343549,0 l -2.566743,2.455 0,-52.98903 c 0,-0.89278 -0.781186,-1.67396 -1.673961,-1.67396 -0.892783,0 -1.673969,0.78118 -1.673969,1.67396 l 0,52.98903 -2.566734,-2.455 c -0.669588,-0.6697 -1.67397,-0.6697 -2.343549,0 -0.669588,0.6695 -0.669588,1.6738 0,2.3434 l 5.356675,5.2452 c 0.334794,0.3347 0.781185,0.4463 1.11598,0.4463 0.334793,0 0.892774,-0.1116 1.115969,-0.4463 l 5.356684,-5.2452 c 0.781177,-0.6696 0.892774,-1.6739 0.223197,-2.3434 z"
       id="path4172"
       sodipodi:nodetypes="cccsssccsccsccc"
       style="fill:#d11e9f;fill-opacity:1" />
    <path
       inkscape:connector-curvature="0"
       d="m 42.870435,976.73537 c -0.669588,-0.66959 -1.67396,-0.78118 -2.343547,-0.11159 l -25.109441,22.87748 0.111599,-3.57115 c 0,-0.89277 -0.669588,-1.67392 -1.562362,-1.78554 -0.892784,0 -1.673961,0.66955 -1.785558,1.56242 l -0.334794,7.58851 c 0,0.8928 0.669577,1.674 1.562362,1.7855 l 7.588634,0.3349 c 0,0 0,0 0.111597,0 0.892775,0 1.673961,-0.6697 1.673961,-1.5624 0,-0.8927 -0.669588,-1.6739 -1.562363,-1.7855 l -3.571124,-0.1116 25.109438,-22.87748 c 0.669589,-0.55799 0.669589,-1.56236 0.111598,-2.34355 z"
       id="path4174"
       style="fill:#d11e9f;fill-opacity:1" />
    <path
       inkscape:connector-curvature="0"
       d="m 88.067426,996.26493 c 0,-0.89276 -0.781186,-1.67392 -1.785569,-1.56231 -0.892774,0 -1.67396,0.78115 -1.562362,1.78552 l 0.111599,3.57116 -24.997842,-22.98914 c -0.669579,-0.66958 -1.785558,-0.55798 -2.343549,0.1116 -0.669578,0.66958 -0.557979,1.78556 0.111599,2.34355 l 25.109439,22.87759 -3.571115,0.223 c -0.892785,0 -1.673971,0.7813 -1.562372,1.7857 0,0.8927 0.781186,1.5622 1.673969,1.5622 0,0 0,0 0.111598,0 l 7.588625,-0.3347 c 0.446391,0 0.892783,-0.2232 1.11598,-0.5581 0.334783,-0.3348 0.446381,-0.781 0.446381,-1.2275 l -0.446381,-7.58857 z"
       id="path4176"
       style="fill:#d11e9f;fill-opacity:1" />
    <g
       id="g4178"
       transform="matrix(1.1159749,0,0,1.1159749,-0.09460336,946.15766)"
       style="fill:#d11e9f;fill-opacity:1">
      <path
         inkscape:connector-curvature="0"
         d="m 45,32.9 c -7.2,0 -13,-5.8 -13,-13 0,-7.2 5.8,-13 13,-13 7.2,0 13,5.8 13,13 0,7.2 -5.8,13 -13,13 z M 45,9.8 c -5.5,0 -10,4.5 -10,10 0,5.5 4.5,10 10,10 5.5,0 10,-4.5 10,-10 0,-5.5 -4.5,-10 -10,-10 z"
         id="path4180"
         style="fill:#d11e9f;fill-opacity:1" />
    </g>
  </g>
</svg>
