<?xml version="1.0" encoding="UTF-8" standalone="no"?>
<!-- Created with Inkscape (http://www.inkscape.org/) -->

<svg
   xmlns:dc="http://purl.org/dc/elements/1.1/"
   xmlns:cc="http://creativecommons.org/ns#"
   xmlns:rdf="http://www.w3.org/1999/02/22-rdf-syntax-ns#"
   xmlns:svg="http://www.w3.org/2000/svg"
   xmlns="http://www.w3.org/2000/svg"
   xmlns:sodipodi="http://sodipodi.sourceforge.net/DTD/sodipodi-0.dtd"
   xmlns:inkscape="http://www.inkscape.org/namespaces/inkscape"
   width="100"
   height="100"
   viewBox="0 0 99.999997 99.999997"
   id="svg4462"
   version="1.1"
   inkscape:version="0.91 r13725">
  <defs
     id="defs4464" />
  <sodipodi:namedview
     id="base"
     pagecolor="#ffffff"
     bordercolor="#666666"
     borderopacity="1.0"
     inkscape:pageopacity="0.0"
     inkscape:pageshadow="2"
     inkscape:zoom="3.959798"
     inkscape:cx="90.979615"
     inkscape:cy="49.832316"
     inkscape:document-units="px"
     inkscape:current-layer="layer1"
     showgrid="false"
     units="px"
     inkscape:window-width="1363"
     inkscape:window-height="698"
     inkscape:window-x="415"
     inkscape:window-y="142"
     inkscape:window-maximized="0" />
  <metadata
     id="metadata4467">
    <rdf:RDF>
      <cc:Work
         rdf:about="">
        <dc:format>image/svg+xml</dc:format>
        <dc:type
           rdf:resource="http://purl.org/dc/dcmitype/StillImage" />
        <dc:title></dc:title>
      </cc:Work>
    </rdf:RDF>
  </metadata>
  <g
     inkscape:label="Layer 1"
     inkscape:groupmode="layer"
     id="layer1"
     transform="translate(0,-952.36223)">
    <path
       id="path4230"
       d="m 54.343985,985.82832 -0.04708,9.9e-4 c 6.592655,-0.22734 12.56788,4.22927 14.042186,9.44036 0.06856,0.24487 0.51654,1.6519 0.558243,1.78645 0.314768,1.01826 0.585143,1.96659 0.844762,3.00778 0.617439,2.4791 1.072102,5.0941 1.324984,7.9499 0.03901,0.4372 -0.138556,0.8662 -0.474845,1.1487 l -6.415094,5.3807 c -0.765392,0.6416 -1.937036,0.2555 -2.172435,-0.7143 l -0.893192,-3.6871 9.85e-4,4.7161 c 0,0.7426 -0.601277,1.3452 -1.343808,1.3452 l -19.122879,0.01 c -0.738493,0 -1.33843,-0.5946 -1.345157,-1.3331 l -0.06186,-7.0164 -1.552326,4.7269 c -0.286529,0.8744 -1.347856,1.2094 -2.085009,0.6565 l -5.380657,-4.0355 c -0.412969,-0.3108 -0.612051,-0.83 -0.51251,-1.3371 l 2.541011,-12.86111 c 1.631695,-6.17558 4.98653,-8.57005 15.309334,-9.18211 l 6.78501,0 z m -6.705651,2.68769 c -9.145772,0.54479 -11.472906,2.20477 -12.768302,7.0984 l -2.358083,11.94909 3.204193,2.4025 3.516252,-10.71418 c 0.474855,-1.44742 2.609625,-1.11519 2.62308,0.40758 l 0.123752,13.8604 16.443292,-0.01 -0.0039,-14.64873 c 0,-1.5927 2.277354,-1.86445 2.652658,-0.31745 l 3.038738,12.54228 4.191529,-3.5163 c -0.568999,-4.4525 -0.191016,-2.1644 -1.170295,-6.8576 -0.246164,-0.9874 -0.503094,-1.88865 -0.804417,-2.86249 -0.02827,-0.0916 -0.493668,-1.55773 -0.577065,-1.85096 -1.139367,-4.03011 -6.016929,-7.66742 -11.35992,-7.48313 l -0.0457,0 -6.705641,0 z"
       inkscape:connector-curvature="0"
       style="fill:#d11e9f;fill-opacity:1" />
    <path
       id="path4232"
       d="m 50.082503,966.04102 c 5.196368,0.34572 7.384956,4.96367 7.757562,9.58969 0,5.23266 -3.388462,9.58969 -7.757562,9.58831 -4.367751,9.8e-4 -7.756222,-4.35565 -7.756222,-9.58831 0.114286,-4.8507 2.768352,-8.96827 7.756222,-9.58841 l 0,-9.9e-4 z m 0,2.69035 c -2.713195,9.9e-4 -5.065889,3.02652 -5.065889,6.89934 0,3.87409 2.352694,6.89933 5.065889,6.89795 2.714544,9.9e-4 5.067238,-3.02386 5.067238,-6.89795 -0.06727,-2.09711 -0.649717,-4.27232 -2.270646,-5.73717 -0.512501,-0.46274 -1.199883,-0.682 -1.79982,-1.02368 l -0.996772,-0.13849 z"
       inkscape:connector-curvature="0"
       style="fill:#d11e9f;fill-opacity:1" />
    <path
       id="path4234"
       d="m 50.082503,952.98078 c 19.316564,0 34.974293,15.65909 34.974293,34.97429 0,19.31523 -15.657729,34.97423 -34.974293,34.97423 -19.315235,0 -34.974302,-15.659 -34.974302,-34.97423 0,-19.3152 15.659067,-34.97429 34.974302,-34.97429 z m 0,2.69033 c -17.828823,0 -32.283959,14.4538 -32.283959,32.28396 0,17.83013 14.455136,32.28393 32.283959,32.28393 17.830172,0 32.28397,-14.4538 32.28397,-32.28393 0,-17.83016 -14.453798,-32.28396 -32.28397,-32.28396 z"
       inkscape:connector-curvature="0"
       style="fill:#d11e9f;fill-opacity:1" />
    <path
       id="path4236"
       d="m 17.420472,1025.9902 c 2.557313,0.8805 3.754635,3.219 4.784404,5.5733 0.509979,-0.2349 1.023652,-0.4624 1.537315,-0.6898 8.804419,-3.8501 16.953301,-4.9031 29.53435,-2.2161 0.110071,0.025 0.646969,-0.056 1.504289,-0.2716 0.565039,-0.143 3.007376,-0.8255 3.364487,-0.9221 1.877328,-0.5051 3.402409,-0.8463 4.896917,-1.0579 4.733038,-0.6176 8.748158,-0.07 11.031512,4.5447 l 0.3192,-0.092 c 0.938048,-0.2703 1.988609,-0.5772 3.128449,-0.9124 0.902579,-0.2666 4.685335,-1.4468 4.412606,-1.3624 1.242572,-0.3828 2.269898,-0.686 3.258081,-0.9576 4.388149,-1.2034 7.604655,-1.6474 10.05433,-1.1312 3.370604,0.7105 4.949508,3.2678 4.31599,7.4603 -0.190789,1.2572 -1.089704,1.6877 -3.13823,2.1671 -0.250724,0.059 -2.373851,0.5137 -3.072187,0.6837 -1.311067,0.318 -2.433787,0.6653 -3.495361,1.1031 -0.281288,0.1163 -0.554017,0.2373 -0.820639,0.3657 -4.515329,2.1574 -8.562254,3.6458 -12.477095,4.6939 -1.533641,0.4097 -3.003692,0.7424 -4.607061,1.0554 -0.913581,0.1786 -3.675138,0.6751 -3.67758,0.6751 -1.378321,0.2581 -2.284564,0.4648 -3.085642,0.7192 -1.246246,0.3962 -2.601331,0.8487 -4.263393,1.4187 -0.338771,0.115 -0.692219,0.2372 -1.07625,0.3694 -8.02046,2.77 -8.57693,2.9547 -10.552085,3.4231 -0.358333,0.086 -0.719128,0.1639 -1.083578,0.236 -6.12237,1.2084 -11.910854,0.6225 -20.367933,-1.3624 -0.514885,-0.1198 -1.028547,-0.2409 -1.543422,-0.3619 -0.002,0 -0.0049,-10e-4 -0.0069,-10e-4 0.130864,3.0648 1.115383,11.8789 -3.294781,13.1999 l -0.549132,0.02 -0.360775,0.1405 -11.816681,2.0841 c -3.5956314,0.6348 -7.1668153,-7.025 -8.9523925,-17.1538 -1.78681828,-10.129 -1.04934994,-18.5482 2.5450695,-19.1817 l 11.817893,-2.084 0.386473,0.01 0.522232,-0.17 0.827968,-0.015 z m -3.439089,2.9584 -9.6898706,1.7086 c -1.4248016,0.2519 -2.08034,7.7392 -0.5625866,16.3491 1.5177535,8.6088 4.6951258,15.4209 6.1199271,15.1702 l 9.6898701,-1.7085 c -3.292338,-4.4273 -4.410163,-9.9822 -5.492519,-15.2815 -0.725245,-4.7257 -1.421138,-9.6263 -0.558913,-14.3875 0.112513,-0.6286 0.328981,-1.234 0.494092,-1.8504 z m 4.127634,18.6313 c -0.73868,0.02 -0.385243,-0.012 -1.060333,0.086 0.695883,3.3303 1.852851,6.7767 3.363257,9.8465 0.322883,0.6566 1.125163,2.2955 2.162279,2.4202 0.130854,-0.1014 0.320432,-0.154 0.391359,-0.3021 0.788835,-1.6534 0.925825,-3.2996 1.001638,-5.1402 0.119862,-2.8924 0.01832,-3.6348 -0.174882,-5.9304 -1.619264,-0.4109 -3.256869,-0.7191 -4.906707,-0.9735 l -0.776611,-0.01 z m 46.903487,-18.9211 -1.626603,0.1688 c -1.377109,0.1956 -2.815366,0.5173 -4.604617,0.998 -0.331433,0.09 -2.800679,0.7803 -3.402399,0.9318 -1.247467,0.3144 -1.993495,0.4257 -2.613555,0.2924 -12.055162,-2.5744 -19.687948,-1.5887 -28.043516,2.0644 -0.763156,0.3339 -3.495341,1.5838 -4.11541,1.8553 -1.538537,0.6714 -2.738302,1.1117 -3.920958,1.4077 -0.76682,0.1737 -0.417047,0.1052 -1.045666,0.2177 0.418269,6.0673 0.09906,3.3498 0.815734,8.1672 l 0.102753,0.5039 0.0049,0 c 2.77378,-0.4819 5.553666,0.3938 8.238159,1.0175 0.530791,0.047 0.3559,-0.057 0.599277,0.1394 1.896879,0.4403 0.896462,0.2067 3.003702,0.7008 8.143996,1.9116 13.641401,2.4681 19.335712,1.3441 0.333886,-0.066 0.664088,-0.1383 0.993078,-0.2165 1.850409,-0.4391 2.455802,-0.6409 10.317268,-3.3547 0.386474,-0.1332 0.741143,-0.2556 1.081145,-0.3718 1.677959,-0.576 3.048952,-1.0322 4.315981,-1.4358 0.918476,-0.2922 1.909112,-0.5185 3.379163,-0.7925 9.555344,-1.7807 12.48933,-2.5647 20.153901,-6.2275 0.308197,-0.1468 0.62129,-0.2862 0.941712,-0.4183 1.191205,-0.4929 2.428892,-0.8745 3.852472,-1.2206 0.73869,-0.1785 2.875281,-0.6372 3.090537,-0.6873 0.972296,-0.2543 0.540563,-0.1138 1.303719,-0.395 0.31921,-2.3005 -0.09534,-3.7864 -2.427661,-4.4579 -1.95314,-0.4121 -4.871238,-0.01 -8.902257,1.0971 -0.960062,0.2629 -1.964152,0.5602 -3.18471,0.9355 0.291079,-0.09 -3.516134,1.0996 -4.441949,1.3723 -1.143503,0.3363 -2.19896,0.6433 -3.141903,0.916 -0.772937,0.2213 -0.481858,0.1382 -0.873227,0.2507 -0.679986,2.3323 -4.559368,2.983 -6.620127,3.5407 0.0069,-10e-4 -8.095072,1.8332 -10.793019,2.5731 -4.164335,1.1411 -7.112996,1.3515 -10.301381,0.8525 -1.545864,-0.2409 -7.506807,-1.7085 -7.778305,-1.7685 -0.09416,-0.021 -0.09416,-0.021 -0.189568,-0.041 -0.659202,-0.1443 -1.077461,-0.7961 -0.933153,-1.4566 0.144318,-0.6592 0.796183,-1.0774 1.456597,-0.9331 0.09781,0.022 0.09781,0.022 0.195684,0.042 0.365681,0.082 6.20431,1.5178 7.626659,1.7404 2.833706,0.4439 5.435037,0.2568 9.276497,-0.795 2.761547,-0.757 10.905533,-2.6013 10.850503,-2.5879 4.093396,-1.015 5.238131,-1.7403 4.925038,-2.5512 -1.399114,-3.2299 -3.790084,-3.2789 -6.900183,-3.417 z m -47.995624,-0.2446 c -1.404009,0.8304 -1.320848,4.2866 -1.367319,5.6907 l 0.443956,-0.1016 c 1.027326,-0.2556 2.109683,-0.653 3.534474,-1.2755 0.32777,-0.1456 0.210361,-0.093 0.351015,-0.1566 -0.555248,-1.0188 -1.585027,-3.8732 -2.962126,-4.157 z"
       inkscape:connector-curvature="0"
       style="fill:#d11e9f;fill-opacity:1" />
  </g>
</svg>
